<?xml version="1.0" encoding="UTF-8" standalone="no" ?>
<!DOCTYPE svg PUBLIC "-//W3C//DTD SVG 1.1//EN" "http://www.w3.org/Graphics/SVG/1.1/DTD/svg11.dtd">
<svg xmlns="http://www.w3.org/2000/svg" xmlns:xlink="http://www.w3.org/1999/xlink" version="1.1" width="1280" height="1024" viewBox="0 0 1280 1024" xml:space="preserve">
<desc>Created with Fabric.js 5.3.0</desc>
<defs>
</defs>
<g transform="matrix(1 0 0 1 640 512)" id="background-logo"  >
<rect style="stroke: none; stroke-width: 0; stroke-dasharray: none; stroke-linecap: butt; stroke-dashoffset: 0; stroke-linejoin: miter; stroke-miterlimit: 4; fill: rgb(255,254,250); fill-rule: nonzero; opacity: 1;"  paint-order="stroke"  x="-640" y="-512" rx="0" ry="0" width="1280" height="1024" />
</g>
<g transform="matrix(1.9211538461538462 0 0 1.9211538461538462 638.4390625 681.7417838979557)" id="text-logo"  >
<g style=""  paint-order="stroke"   >
		<g transform="matrix(1 0 0 1 0 0)" id="text-logo-path-0"  >
<path style="stroke: none; stroke-width: 0.78125; stroke-dasharray: none; stroke-linecap: butt; stroke-dashoffset: 0; stroke-linejoin: miter; stroke-miterlimit: 4; fill: rgb(255,213,0); fill-rule: nonzero; opacity: 1;"  paint-order="stroke"  transform=" translate(-173.75000000000003, 17.5)" d="M 15 0.5 C 23 0.5 27.95 -5.25 27.95 -10.15 C 27.95 -15.95 22.7 -19.4 16.45 -21.4 C 12.25 -22.8 11.05 -23.55 11.05 -25.2 C 11.05 -26.65 12.8 -27.5 14.7 -27.5 C 16.8 -27.5 18.4 -26.4 19.95 -23.5 L 27 -27.7 C 24.45 -31.95 19.8 -35.5 14.7 -35.5 C 8.7 -35.5 3.05 -30.85 3.05 -25.2 C 3.05 -18.7 8.25 -16.25 14.15 -14.3 C 18.1 -13 19.6 -12 19.6 -10.15 C 19.6 -8.65 18.1 -7.5 15 -7.5 C 12.3 -7.5 10.05 -8.35 8.2 -11.9 L 1.4 -7.85 C 4.05 -3.3 8.55 0.5 15 0.5 Z M 38.8 0 L 46.8 0 L 46.8 -35 L 38.8 -35 Z M 77.2 0 L 79.7 0 L 88.2 -19.2 L 88.2 0 L 96.2 0 L 96.2 -35 L 87.7 -35 L 78.45 -15.55 L 69.2 -35 L 60.7 -35 L 60.7 0 L 68.7 0 L 68.7 -19.2 Z M 110.1 0 L 126.25 0 C 132.15 0 137.05 -4.9 137.05 -10.9 C 137.05 -14.35 135.25 -16.9 132.6 -18.4 C 134.8 -19.95 135.65 -22.3 135.65 -25.2 C 135.65 -30.8 130.95 -35 125.35 -35 L 110.1 -35 Z M 118.1 -7.5 L 118.1 -14.25 L 125.25 -14.25 C 127.35 -14.25 128.55 -13 128.55 -10.9 C 128.55 -8.7 127.3 -7.5 125.25 -7.5 Z M 118.1 -21.75 L 118.1 -27.5 L 124.35 -27.5 C 126.25 -27.5 127.15 -26.55 127.15 -24.7 C 127.15 -22.65 126.25 -21.75 124.35 -21.75 Z M 167.95 0 L 176.95 0 L 165.45 -35 L 156.45 -35 L 144.95 0 L 153.95 0 L 155.6 -5.75 L 166.3 -5.75 Z M 157.75 -13.25 L 160.95 -24.5 L 164.15 -13.25 Z M 211.65 0 L 219.65 0 L 219.65 -27.5 L 228.55 -27.5 L 228.55 -35 L 202.7 -35 L 202.7 -27.5 L 211.65 -27.5 Z M 239.7 0 L 262.9 0 L 262.9 -7.5 L 247.7 -7.5 L 247.7 -13.75 L 260.85 -13.75 L 260.85 -21.25 L 247.7 -21.25 L 247.7 -27.5 L 262.4 -27.5 L 262.4 -35 L 239.7 -35 Z M 290.65 0.5 C 297.8 0.5 303.1 -2.5 306.55 -9 L 299.5 -12.85 C 297.75 -9.5 294.55 -7.5 290.65 -7.5 C 284.9 -7.5 280.65 -11.5 280.65 -17.5 C 280.65 -23.25 284.65 -27.5 290.65 -27.5 C 294.5 -27.5 297.4 -25.85 299.35 -22.4 L 306.5 -26.1 C 303.35 -31.9 297.55 -35.5 290.65 -35.5 C 280.2 -35.5 272.65 -28.4 272.65 -17.5 C 272.65 -7.05 279.75 0.5 290.65 0.5 Z M 338.1 0 L 346.1 0 L 346.1 -35 L 338.1 -35 L 338.1 -21.25 L 325.6 -21.25 L 325.6 -35 L 317.6 -35 L 317.6 0 L 325.6 0 L 325.6 -13.75 L 338.1 -13.75 Z" stroke-linecap="round" />
</g>
</g>
</g>
<g transform="matrix(1.9211538461538462 0 0 1.9211538461538462 632.4455427884616 770.6415906132372)" id="tagline-74998845-0efb-406c-9433-58832f08fef7-logo"  >
<g style=""  paint-order="stroke"   >
		<g transform="matrix(1 0 0 1 0 0)" id="tagline-74998845-0efb-406c-9433-58832f08fef7-logo-path-0"  >
<path style="stroke: none; stroke-width: 0; stroke-dasharray: none; stroke-linecap: butt; stroke-dashoffset: 0; stroke-linejoin: miter; stroke-miterlimit: 4; fill: rgb(255,213,0); fill-rule: nonzero; opacity: 1;"  paint-order="stroke"  transform=" translate(-144.67000000000002, 7.51)" d="M 1.83 -14.99 L 5.88 -14.99 Q 8.63 -14.99 9.9 -13.81 Q 11.17 -12.62 11.17 -10.5 L 11.17 -10.5 Q 11.17 -9.24 10.66 -8.15 Q 10.14 -7.06 8.94 -6.37 Q 7.73 -5.69 5.63 -5.69 L 5.63 -5.69 L 4.16 -5.69 L 4.16 0 L 1.83 0 L 1.83 -14.99 Z M 5.75 -13.08 L 5.75 -13.08 L 4.16 -13.08 L 4.16 -7.6 L 5.4 -7.6 Q 7.06 -7.6 7.93 -8.24 Q 8.8 -8.88 8.8 -10.42 L 8.8 -10.42 Q 8.8 -11.76 8.06 -12.42 Q 7.33 -13.08 5.75 -13.08 Z M 30.35 -1.95 L 30.35 0 L 22.34 0 L 22.34 -14.99 L 30.35 -14.99 L 30.35 -13.06 L 24.68 -13.06 L 24.68 -8.78 L 29.99 -8.78 L 29.99 -6.87 L 24.68 -6.87 L 24.68 -1.95 L 30.35 -1.95 Z M 49.9 0 L 47.86 0 L 43.74 -12.75 L 43.66 -12.75 Q 43.7 -12.31 43.74 -11.6 Q 43.79 -10.9 43.81 -10.07 Q 43.83 -9.24 43.83 -8.46 L 43.83 -8.46 L 43.83 0 L 41.71 0 L 41.71 -14.99 L 44.98 -14.99 L 48.91 -2.96 L 48.99 -2.96 L 53 -14.99 L 56.28 -14.99 L 56.28 0 L 54.05 0 L 54.05 -8.59 Q 54.05 -9.32 54.08 -10.1 Q 54.1 -10.88 54.13 -11.57 Q 54.16 -12.26 54.2 -12.73 L 54.2 -12.73 L 54.12 -12.73 L 49.9 0 Z M 80.89 -7.52 L 80.89 -7.52 Q 80.89 -5.19 80.16 -3.45 Q 79.42 -1.72 77.95 -0.76 Q 76.48 0.21 74.3 0.21 L 74.3 0.21 Q 72.05 0.21 70.58 -0.76 Q 69.11 -1.72 68.4 -3.47 Q 67.68 -5.21 67.68 -7.54 L 67.68 -7.54 Q 67.68 -9.85 68.4 -11.58 Q 69.11 -13.31 70.59 -14.27 Q 72.07 -15.23 74.32 -15.23 L 74.32 -15.23 Q 76.5 -15.23 77.96 -14.27 Q 79.42 -13.31 80.16 -11.58 Q 80.89 -9.85 80.89 -7.52 Z M 70.14 -7.52 L 70.14 -7.52 Q 70.14 -4.83 71.14 -3.28 Q 72.14 -1.72 74.3 -1.72 L 74.3 -1.72 Q 76.48 -1.72 77.46 -3.28 Q 78.44 -4.83 78.44 -7.52 L 78.44 -7.52 Q 78.44 -10.21 77.46 -11.74 Q 76.48 -13.27 74.32 -13.27 L 74.32 -13.27 Q 72.16 -13.27 71.15 -11.74 Q 70.14 -10.21 70.14 -7.52 Z M 103.4 -14.99 L 103.4 0 L 101.07 0 L 101.07 -6.85 L 94.61 -6.85 L 94.61 0 L 92.27 0 L 92.27 -14.99 L 94.61 -14.99 L 94.61 -8.78 L 101.07 -8.78 L 101.07 -14.99 L 103.4 -14.99 Z M 120.39 -13.04 L 120.39 0 L 118.08 0 L 118.08 -13.04 L 113.93 -13.04 L 113.93 -14.99 L 124.53 -14.99 L 124.53 -13.04 L 120.39 -13.04 Z M 152.57 -13.04 L 152.57 0 L 150.26 0 L 150.26 -13.04 L 146.1 -13.04 L 146.1 -14.99 L 156.7 -14.99 L 156.7 -13.04 L 152.57 -13.04 Z M 175.22 -1.95 L 175.22 0 L 167.22 0 L 167.22 -14.99 L 175.22 -14.99 L 175.22 -13.06 L 169.55 -13.06 L 169.55 -8.78 L 174.87 -8.78 L 174.87 -6.87 L 169.55 -6.87 L 169.55 -1.95 L 175.22 -1.95 Z M 192.26 -7.77 L 196.98 0 L 194.33 0 L 190.85 -6.26 L 187.3 0 L 184.8 0 L 189.48 -7.79 L 185.09 -14.99 L 187.68 -14.99 L 190.91 -9.26 L 194.15 -14.99 L 196.64 -14.99 L 192.26 -7.77 Z M 218.4 -14.99 L 218.4 0 L 216.07 0 L 216.07 -6.85 L 209.6 -6.85 L 209.6 0 L 207.27 0 L 207.27 -14.99 L 209.6 -14.99 L 209.6 -8.78 L 216.07 -8.78 L 216.07 -14.99 L 218.4 -14.99 Z M 230.5 0 L 230.5 -14.99 L 232.64 -14.99 L 232.64 -7.06 Q 232.64 -6.34 232.62 -5.48 Q 232.6 -4.62 232.56 -3.9 Q 232.53 -3.17 232.49 -2.88 L 232.49 -2.88 L 232.58 -2.88 L 239.8 -14.99 L 242.45 -14.99 L 242.45 0 L 240.3 0 L 240.3 -7.88 Q 240.3 -8.65 240.33 -9.54 Q 240.37 -10.44 240.41 -11.16 Q 240.45 -11.89 240.45 -12.18 L 240.45 -12.18 L 240.39 -12.18 L 233.16 0 L 230.5 0 Z M 259.39 -7.73 L 265.34 0 L 262.63 0 L 256.83 -7.6 L 256.83 0 L 254.5 0 L 254.5 -14.99 L 256.83 -14.99 L 256.83 -7.73 L 262.5 -14.99 L 265.06 -14.99 L 259.39 -7.73 Z M 275.56 0 L 275.56 -14.99 L 277.7 -14.99 L 277.7 -7.06 Q 277.7 -6.34 277.68 -5.48 Q 277.66 -4.62 277.63 -3.9 Q 277.6 -3.17 277.56 -2.88 L 277.56 -2.88 L 277.64 -2.88 L 284.87 -14.99 L 287.51 -14.99 L 287.51 0 L 285.37 0 L 285.37 -7.88 Q 285.37 -8.65 285.4 -9.54 Q 285.43 -10.44 285.47 -11.16 Q 285.52 -11.89 285.52 -12.18 L 285.52 -12.18 L 285.45 -12.18 L 278.23 0 L 275.56 0 Z" stroke-linecap="round" />
</g>
</g>
</g>
<g transform="matrix(1.9211538461538462 0 0 1.9211538461538462 640 409.4079192239244)" id="logo-logo"  >
<g style=""  paint-order="stroke"   >
		<g transform="matrix(0.07788250306762162 0 0 -0.07788250306762162 0 2.842171e-14)"  >
<path style="stroke: none; stroke-width: 1; stroke-dasharray: none; stroke-linecap: butt; stroke-dashoffset: 0; stroke-linejoin: miter; stroke-miterlimit: 10; fill: rgb(255,213,0); fill-rule: nonzero; opacity: 1;"  paint-order="stroke"  transform=" translate(-2523.902576356759, -2592.9257494689555)" d="M 3125.49 2388.34 C 3176.3599999999997 2309.3500000000004 3199.66 2206.27 3032.22 2140.4 C 2881.8599999999997 2080.57 2633.6299999999997 2132.14 2591.3199999999997 2229.2000000000003 C 2569.9599999999996 2274.7500000000005 2598.0199999999995 2339.3100000000004 2627.68 2387.1200000000003 C 2659.4199999999996 2437.6300000000006 2719.22 2479.7100000000005 2763.62 2527.5200000000004 C 2755.02 2536.6400000000003 2746.5699999999997 2545.8000000000006 2738.15 2555.0300000000007 C 2603.15 2545.3200000000006 2468.33 2542.3400000000006 2283.48 2558.8800000000006 C 2343.41 2489.4600000000005 2382.89 2442.9400000000005 2430.42 2401.0900000000006 C 2533.27 2312.8200000000006 2535.39 2227.0900000000006 2397.5 2163.8000000000006 C 2277.6 2109.7300000000005 2131.06 2098.600000000001 1999.42 2168.5900000000006 C 1859.43 2244.850000000001 1930.13 2330.2800000000007 1944.29 2412.6900000000005 C 1954 2465.3400000000006 1949.6499999999999 2523.3000000000006 1934.77 2577.7900000000004 C 1892.35 2731.2000000000003 1845.06 2885.2100000000005 1828.12 3039.6500000000005 C 1821.8799999999999 3096.4300000000007 1845.05 3156.6300000000006 1869.55 3208.5200000000004 C 1934.6399999999999 3344.0200000000004 2012.73 3384.8000000000006 2153.7599999999998 3344.4500000000003 C 2279.89 3309.67 2403.3799999999997 3255.7200000000003 2548.2099999999996 3227.2300000000005 C 2649.3099999999995 3254.5800000000004 2765.5599999999995 3313.3200000000006 2883.8499999999995 3350.5000000000005 C 3063.0199999999995 3408.1100000000006 3184.2899999999995 3362.1500000000005 3213.629999999999 3163.5500000000006 C 3237.829999999999 2983.7700000000004 3193.5699999999993 2790.3800000000006 3142.539999999999 2606.3800000000006 C 3122.399999999999 2530.0500000000006 3076.859999999999 2465.9300000000007 3125.489999999999 2388.3400000000006 z M 2533.5899999999997 1813.25 C 2254.8499999999995 1818.4 2090.6699999999996 1927.08 2063.8999999999996 2061.7 C 2230.1099999999997 2078 2386.6699999999996 2106.47 2536.5099999999998 2145.3599999999997 C 2673.4599999999996 2107.1899999999996 2834.5499999999997 2072.93 3006.33 2051.9999999999995 C 2978.34 1914.1899999999996 2814.36 1810.2699999999995 2533.59 1813.2499999999995 z M 3748.22 2967.1099999999997 C 3733.3599999999997 3016.37 3716.23 3067.9399999999996 3689.1099999999997 3111.4999999999995 C 3576.5899999999997 3290.2199999999993 3463.4599999999996 3485.3999999999996 3354.24 3659.3799999999997 C 3237.2 3842.0799999999995 3091.1699999999996 3877.1499999999996 2858.9399999999996 3857.1499999999996 C 2639.5999999999995 3837.7499999999995 2416.7499999999995 3831.2899999999995 2197.7799999999997 3843.6499999999996 C 1997.5499999999997 3854.5399999999995 1820.8599999999997 3815.6199999999994 1715.5299999999997 3653.5999999999995 C 1596.0499999999997 3467.6699999999996 1459.3399999999997 3262.6899999999996 1351.6499999999996 3065.4099999999994 C 1246.3099999999997 2857.4299999999994 1271.5999999999997 2794.3999999999996 1370.2899999999997 2680.8399999999992 C 1413.8399999999997 2634.1199999999994 1439.9699999999998 2571.3699999999994 1421.8399999999997 2497.9899999999993 C 1371.7999999999997 2271.999999999999 1392.9299999999996 2244.1599999999994 1606.0099999999998 2152.1399999999994 C 1679.1199999999997 2122.1699999999996 1713.0699999999997 2082.4099999999994 1705.8999999999999 1997.9999999999995 C 1688.3799999999999 1759.1599999999996 1764.7299999999998 1674.9599999999996 2035.1499999999999 1618.0999999999995 C 2147.3199999999997 1595.7999999999995 2246.6 1555.1699999999994 2322.8399999999997 1492.5199999999995 C 2396.1 1432.5599999999995 2462.3799999999997 1375.4699999999996 2531.9599999999996 1323.7099999999996 C 2657.5599999999995 1430.4699999999996 2804.0499999999997 1575.5599999999995 3068.2699999999995 1615.0399999999995 C 3281.2699999999995 1649.0899999999995 3334.0899999999997 1717.9799999999996 3346.7699999999995 1911.4899999999996 C 3354.6799999999994 2092.6799999999994 3360.7199999999993 2094.7699999999995 3529.1699999999996 2177.4999999999995 C 3653.9199999999996 2242.6799999999994 3672.0999999999995 2282.7599999999998 3644.1599999999994 2417.1899999999996 C 3615.4099999999994 2541.3699999999994 3634.7099999999996 2644.0199999999995 3711.6199999999994 2724.1199999999994 C 3771.1499999999996 2789.2199999999993 3775.2699999999995 2872.3099999999995 3748.2199999999993 2967.1099999999997" stroke-linecap="round" />
</g>
		<g transform="matrix(0.07788250306762162 0 0 -0.07788250306762162 -28.02637150677208 -29.468690335358843)"  >
<path style="stroke: none; stroke-width: 1; stroke-dasharray: none; stroke-linecap: butt; stroke-dashoffset: 0; stroke-linejoin: miter; stroke-miterlimit: 10; fill: rgb(255,213,0); fill-rule: nonzero; opacity: 1;"  paint-order="stroke"  transform=" translate(-2163.985675011802, -2971.365)" d="M 1985.91 3125.88 C 2023.78 3034.51 2040.93 2947.5 2101.09 2894.67 C 2157.19 2845.53 2257.75 2836.5 2338.82 2816.85 C 2362.98 2995.34 2252.7400000000002 3080.3599999999997 1985.91 3125.88" stroke-linecap="round" />
</g>
		<g transform="matrix(0.07788250306762162 0 0 -0.07788250306762162 28.32860717851969 -30.21854687404044)"  >
<path style="stroke: none; stroke-width: 1; stroke-dasharray: none; stroke-linecap: butt; stroke-dashoffset: 0; stroke-linejoin: miter; stroke-miterlimit: 10; fill: rgb(255,213,0); fill-rule: nonzero; opacity: 1;"  paint-order="stroke"  transform=" translate(-2887.7010474108047, -2980.995)" d="M 2724.45 2828.32 C 2930.81 2840.6400000000003 3079.33 2935.78 3048.0499999999997 3133.67 C 2814.66 3087.65 2710.3099999999995 3002.66 2724.45 2828.32" stroke-linecap="round" />
</g>
</g>
</g>
</svg>